<?xml version="1.0" standalone="no"?><!DOCTYPE svg PUBLIC "-//W3C//DTD SVG 1.1//EN" "http://www.w3.org/Graphics/SVG/1.1/DTD/svg11.dtd"><svg t="1755109126194" class="icon" viewBox="0 0 1024 1024" version="1.1" xmlns="http://www.w3.org/2000/svg" p-id="17432" xmlns:xlink="http://www.w3.org/1999/xlink" width="200" height="200"><path d="M832.938667 298.666667h-23.850667c19.562667-22.784 34.666667-54.293333 21.802667-92.565334-9.6-28.522667-29.866667-48.832-58.666667-58.730666-42.133333-14.464-97.301333-4.266667-144 26.602666-39.658667 26.218667-78.506667 66.453333-103.936 95.338667-25.450667-28.629333-64.192-68.394667-103.744-94.314667-46.826667-30.698667-102.08-40.768-144.213333-26.218666-28.608 9.856-48.789333 29.994667-58.368 58.197333-12.821333 37.866667 2.090667 69.077333 21.546666 91.690667H212.394667A63.146667 63.146667 0 0 0 149.333333 361.728v108.544c0 27.584 17.941333 50.858667 42.666667 59.392v287.018667A79.424 79.424 0 0 0 271.338667 896h502.656A79.424 79.424 0 0 0 853.333333 816.661333V529.664c24.725333-8.533333 42.666667-31.786667 42.666667-59.392v-108.544A63.146667 63.146667 0 0 0 832.938667 298.666667z m-181.162667-89.130667c35.349333-23.36 77.205333-31.957333 106.581333-21.824 16 5.504 26.816 16.256 32.085334 32 12.928 38.421333-32.234667 69.930667-46.741334 78.890667l-186.453333-2.090667c23.765333-26.901333 59.456-63.786667 94.528-86.976z m-393.386667 11.136c5.248-15.466667 15.957333-26.090667 31.850667-31.573333a84.373333 84.373333 0 0 1 27.328-4.224c25.173333 0 54.058667 9.088 79.573333 25.813333 34.901333 22.869333 70.4 59.2 94.229334 85.866667l-186.24 2.069333c-14.485333-8.874667-59.605333-40.042667-46.741334-77.952zM192 361.728c0-11.242667 9.152-20.394667 20.394667-20.394667h81.877333l0.128 0.064 5.632-0.064H512v149.333334H212.394667A20.416 20.416 0 0 1 192 470.272v-108.544z m42.666667 454.933333V533.333333h277.333333v320H271.338667A36.693333 36.693333 0 0 1 234.666667 816.661333zM773.994667 853.333333H554.666667V533.333333h256v283.328A36.693333 36.693333 0 0 1 773.994667 853.333333zM853.333333 470.272a20.416 20.416 0 0 1-20.394666 20.394667H554.666667v-149.333334h194.24l5.589333 0.064 0.128-0.064h78.314667c11.242667 0 20.394667 9.152 20.394666 20.394667v108.544z" fill="#222222" p-id="17433"></path></svg>