<?xml version="1.0" standalone="no"?><!DOCTYPE svg PUBLIC "-//W3C//DTD SVG 1.1//EN" "http://www.w3.org/Graphics/SVG/1.1/DTD/svg11.dtd"><svg t="1755109088381" class="icon" viewBox="0 0 1024 1024" version="1.1" xmlns="http://www.w3.org/2000/svg" p-id="16039" xmlns:xlink="http://www.w3.org/1999/xlink" width="200" height="200"><path d="M1005.381818 451.490909c-9.309091-18.618182-32.581818-37.236364-32.581818-37.236364L875.054545 146.618182C854.109091 95.418182 795.927273 69.818182 770.327273 69.818182H253.672727C228.072727 69.818182 169.890909 95.418182 148.945455 146.618182L51.2 414.254545s-23.272727 20.945455-32.581818 37.236364c-9.309091 18.618182-18.618182 34.909091-18.618182 153.6 0 116.363636 23.272727 155.927273 48.872727 169.890909l20.945455 11.636364v107.054545c0 34.909091 6.981818 44.218182 39.563636 44.218182h72.145455c32.581818 0 53.527273 0 53.527272-34.909091v-104.727273h546.909091v104.727273c0 34.909091 20.945455 34.909091 53.527273 34.909091H907.636364c32.581818 0 39.563636-9.309091 39.563636-44.218182v-107.054545l20.945455-11.636364C1000.727273 761.018182 1024 719.127273 1024 605.090909c0-118.690909-9.309091-134.981818-18.618182-153.6zM181.527273 384c4.654545-16.290909 30.254545-134.981818 41.890909-174.545455 4.654545-13.963636 37.236364-55.854545 74.472727-53.527272h425.890909c37.236364-2.327273 69.818182 39.563636 74.472727 53.527272 11.636364 41.890909 39.563636 160.581818 44.218182 174.545455 4.654545 18.618182-11.636364 16.290909-11.636363 16.290909H193.163636s-16.290909 0-11.636363-16.290909z m9.309091 288.581818c-44.218182 0-79.127273-34.909091-79.127273-79.127273s34.909091-79.127273 79.127273-79.127272 79.127273 34.909091 79.127272 79.127272-34.909091 79.127273-79.127272 79.127273z m644.654545 0c-44.218182 0-79.127273-34.909091-79.127273-79.127273s34.909091-79.127273 79.127273-79.127272 79.127273 34.909091 79.127273 79.127272c-2.327273 44.218182-37.236364 79.127273-79.127273 79.127273z" fill="#797777" p-id="16040"></path></svg>