<?xml version="1.0" standalone="no"?><!DOCTYPE svg PUBLIC "-//W3C//DTD SVG 1.1//EN" "http://www.w3.org/Graphics/SVG/1.1/DTD/svg11.dtd"><svg t="1755109188161" class="icon" viewBox="0 0 1024 1024" version="1.1" xmlns="http://www.w3.org/2000/svg" p-id="19307" xmlns:xlink="http://www.w3.org/1999/xlink" width="200" height="200"><path d="M755.712 77.312H268.288c-112.128 0-203.264 91.136-203.264 203.264v325.12c0 112.128 91.136 203.264 203.264 203.264h123.904l119.808 138.24 119.808-138.24h123.904c112.128 0 203.264-91.136 203.264-203.264V280.064c0-111.616-91.136-202.752-203.264-202.752z m142.336 527.872c0 67.072-75.264 142.336-142.336 142.336h-161.28L512 843.264l-82.432-95.232H268.288c-67.072 0-142.336-75.264-142.336-142.336V280.064c0-67.072 75.264-142.336 142.336-142.336h487.936c67.072 0 142.336 75.264 142.336 142.336l-0.512 325.12z" fill="#4C4A58" p-id="19308"></path><path d="M527.36 253.44c-84.48-4.096-134.656 33.792-150.016 113.152l56.32 13.824C445.952 328.192 474.112 302.08 519.68 302.08c37.888 2.56 58.368 22.016 62.464 58.368 1.536 26.112-16.384 52.224-52.736 77.824-35.328 23.552-52.224 53.76-50.688 91.648v19.456h52.736v-15.36c-1.536-27.136 12.8-50.688 43.008-70.144 50.688-31.232 74.752-67.584 72.192-109.056-8.192-63.488-47.616-97.28-119.296-101.376z m-54.272 343.04H537.6v62.464H473.088v-62.464z" fill="#23BF70" p-id="19309"></path></svg>