<?xml version="1.0" standalone="no"?><!DOCTYPE svg PUBLIC "-//W3C//DTD SVG 1.1//EN" "http://www.w3.org/Graphics/SVG/1.1/DTD/svg11.dtd"><svg t="1755108998157" class="icon" viewBox="0 0 1024 1024" version="1.1" xmlns="http://www.w3.org/2000/svg" p-id="13695" xmlns:xlink="http://www.w3.org/1999/xlink" width="200" height="200"><path d="M768 225.80224c78.60224 70.4 128 172.39552 128 286.19776s-49.39776 215.79776-128 286.19776v177.80224c0 26.39872-21.60128 48-48 48h-416c-26.39872 0-48-21.60128-48-48v-177.80224C177.39776 727.79776 128 625.80224 128 512s49.39776-215.79776 128-286.19776V48C256 21.60128 277.60128 0 304 0h416C746.39872 0 768 21.60128 768 48v177.80224zM320 64v115.39968C376.40192 146.60096 441.99936 128 512 128s135.59808 18.60096 192 51.39968V64h-384z m384 896v-115.39968C647.59808 877.19936 582.00064 896 512 896s-135.59808-18.80064-192-51.39968V960h384z m-192-128c176.79872 0 320-143.20128 320-320S688.79872 192 512 192c-176.9984 0-320 143.60064-320 320s142.80192 320 320 320z m98.00192-184.40192l-120.19712-87.3984a24.14592 24.14592 0 0 1-9.79968-19.39968V300.60032a24.07424 24.07424 0 0 1 24.00256-24.00256h16a24.07424 24.07424 0 0 1 24.00256 24.00256v219.8016l103.59808 75.40224c10.8032 7.79776 12.99968 22.79936 5.20192 33.60256l-9.40032 12.99968c-7.59808 10.5984-22.59968 12.99968-33.39776 5.1968z" p-id="13696"></path></svg>