<?xml version="1.0" standalone="no"?><!DOCTYPE svg PUBLIC "-//W3C//DTD SVG 1.1//EN" "http://www.w3.org/Graphics/SVG/1.1/DTD/svg11.dtd"><svg t="1755076761087" class="icon" viewBox="0 0 1024 1024" version="1.1" xmlns="http://www.w3.org/2000/svg" p-id="16436" xmlns:xlink="http://www.w3.org/1999/xlink" width="200" height="200"><path d="M635.52 573.674667C612.181333 620.586667 569.28 661.333333 512 661.333333s-100.181333-40.746667-123.52-87.658666l-19.029333-38.186667 76.373333-38.037333 19.029333 38.186666C480.170667 566.442667 499.328 576 512 576c12.672 0 31.829333-9.6 47.146667-40.341333l18.986666-38.186667 76.416 38.016-19.029333 38.186667z" fill="#a189fa" p-id="16437"></path><path d="M438.272 148.48c32.917333-56.490667 114.56-56.490667 147.477333 0l98.496 169.130667 191.274667 41.408c63.914667 13.866667 89.130667 91.498667 45.568 140.266666l-130.410667 145.92 19.712 194.730667c6.613333 65.066667-59.456 113.066667-119.296 86.677333L512 847.68l-179.093333 78.933333c-59.84 26.368-125.888-21.610667-119.296-86.677333l19.712-194.709333-130.410667-145.941334c-43.562667-48.768-18.346667-126.421333 45.589333-140.266666l191.253334-41.408 98.517333-169.109334zM512 191.466667L413.504 360.533333a85.333333 85.333333 0 0 1-55.68 40.448L166.549333 442.453333l130.410667 145.92a85.333333 85.333333 0 0 1 21.248 65.472l-19.712 194.709334 179.093333-78.933334a85.333333 85.333333 0 0 1 68.821334 0l179.093333 78.933334-19.712-194.709334a85.333333 85.333333 0 0 1 21.269333-65.472l130.389334-145.92-191.274667-41.429333a85.333333 85.333333 0 0 1-55.68-40.448L512 191.445333z" fill="#a189fa" p-id="16438"></path></svg>