<?xml version="1.0" standalone="no"?><!DOCTYPE svg PUBLIC "-//W3C//DTD SVG 1.1//EN" "http://www.w3.org/Graphics/SVG/1.1/DTD/svg11.dtd"><svg t="1755764509478" class="icon" viewBox="0 0 1037 1024" version="1.1" xmlns="http://www.w3.org/2000/svg" p-id="5293" xmlns:xlink="http://www.w3.org/1999/xlink" width="202.5390625" height="200"><path d="M516.446316 512m-512 0a512 512 0 1 0 1024 0 512 512 0 1 0-1024 0Z" fill="#FFFFFF" p-id="5294"></path><path d="M762.071579 303.925895c20.345263 0.579368 36.890947 17.165474 36.890947 37.510737V648.488421a36.944842 36.944842 0 0 1-33.414737 36.917895l-11.897263 1.455158-25.397894 2.802526-16.49179 1.926737-8.124631 0.997052-15.993264 2.088422c-52.709053 7.248842-99.664842 17.488842-140.530526 39.289263a33.562947 33.562947 0 0 1-14.821053 3.503158c-5.308632 0-10.617263-1.347368-15.413894-4.311579l-1.724632 1.104842a30.962526 30.962526 0 0 1-15.104 4.069052c-4.944842 0-9.876211-1.158737-14.524631-3.772631-44.517053-24.050526-96.390737-34.196211-154.866527-41.633684l-16.101052-1.980632-24.764632-2.802526-16.922947-1.859369-7.545264-0.862316a36.446316 36.446316 0 0 1-33.118315-36.648421V341.733053c0-20.075789 16.559158-36.931368 36.890947-37.510737 92.968421-1.455158 174.012632 15.117474 240.828632 49.717895 1.886316 0.943158 3.691789 2.074947 5.362526 3.341473a34.896842 34.896842 0 0 1 6.251789-3.920842c66.816-34.317474 147.860211-51.173053 240.532211-49.434947z m-481.347368 29.372631h-11.048422a8.434526 8.434526 0 0 0-8.421052 8.434527V648.757895c0 4.082526 3.193263 7.572211 7.275789 7.855158l7.545263 0.875789 26.206316 2.802526 17.057684 1.913264 8.407579 1.010526 16.572632 2.101895c57.397895 7.666526 108.867368 18.795789 155.149474 43.641263h0.282947c0.296421 0.282947 0.579368 0.282947 0.87579 0 0.282947-0.296421 0.579368-0.592842 0.579368-0.87579V386.802526a8.070737 8.070737 0 0 0-4.069053-6.979368c-60.429474-31.124211-133.052632-46.524632-216.414315-46.524632z m481.050947-0.296421h-11.317895c-83.092211 0-155.715368 15.710316-215.848421 46.524632a8.218947 8.218947 0 0 0-4.352 7.275789v319.541895c0 0.875789 0.282947 1.455158 1.158737 2.034526 0.875789 0.592842 1.455158 0.296421 1.751579 0h0.282947c42.873263-22.851368 90.300632-33.684211 142.95579-41.256421l15.966316-2.182737 16.27621-2.034526 16.586105-1.953684 25.505685-2.869895 11.910736-1.455158a7.949474 7.949474 0 0 0 7.545264-7.855158v-307.334736a8.434526 8.434526 0 0 0-8.421053-8.434527zM307.698526 521.485474c44.005053 0 88.616421 9.539368 132.608 28.968421 7.895579 3.287579 11.533474 12.840421 8.501895 21.39621-2.425263 6.251789-8.192 10.213053-14.268632 10.213053a13.312 13.312 0 0 1-4.352-0.700632l-1.401263-0.619789c-40.070737-17.448421-81.030737-26.341053-121.088-26.341053-8.488421 0-15.171368-7.235368-15.171368-16.464842 0-9.216 6.669474-16.451368 15.171368-16.451368z m417.495579 0c8.488421 0 15.171368 7.235368 15.171369 16.451368 0 9.229474-6.669474 16.464842-15.171369 16.464842-40.353684 0-81.017263 8.892632-121.088 26.341053a14.389895 14.389895 0 0 1-6.063158 1.320421c-6.063158 0-11.829895-3.961263-13.958736-10.213053-3.031579-8.555789 0.606316-18.108632 8.488421-21.39621 43.708632-19.092211 88.32-28.968421 132.621473-28.968421zM307.698526 412.429474c44.005053 0 88.616421 9.552842 132.608 28.968421 7.895579 3.301053 11.533474 12.840421 8.501895 21.409684-2.425263 6.251789-8.192 10.199579-14.268632 10.199579a13.312 13.312 0 0 1-4.352-0.700632l-1.401263-0.619789c-40.070737-17.448421-81.030737-26.327579-121.088-26.327579-8.488421 0-15.171368-7.248842-15.171368-16.464842 0-9.216 6.669474-16.464842 15.171368-16.464842z m417.495579 0c8.488421 0 15.171368 7.248842 15.171369 16.464842 0 9.216-6.669474 16.464842-15.171369 16.464842-40.353684 0-81.017263 8.892632-121.088 26.327579a14.389895 14.389895 0 0 1-6.063158 1.320421c-6.063158 0-11.829895-3.947789-13.958736-10.199579-3.031579-8.569263 0.606316-18.108632 8.488421-21.409684 43.708632-19.092211 88.32-28.968421 132.621473-28.968421z" fill="#00812C" p-id="5295"></path></svg>