<?xml version="1.0" standalone="no"?><!DOCTYPE svg PUBLIC "-//W3C//DTD SVG 1.1//EN" "http://www.w3.org/Graphics/SVG/1.1/DTD/svg11.dtd"><svg t="1755764529607" class="icon" viewBox="0 0 1024 1024" version="1.1" xmlns="http://www.w3.org/2000/svg" p-id="6384" xmlns:xlink="http://www.w3.org/1999/xlink" width="200" height="200"><path d="M510.6 958.5c-60.5 0-119.1-11.8-174.4-35.2-53.3-22.6-101.3-54.9-142.4-96-41.1-41.1-73.4-89-96-142.4C74.4 629.7 62.6 571 62.6 510.5s11.8-119.1 35.2-174.4c22.6-53.3 54.9-101.3 96-142.4 41.1-41.1 89-73.4 142.4-96 55.2-23.4 113.9-35.2 174.4-35.2S629.7 74.3 685 97.7c53.3 22.6 101.3 54.9 142.4 96 41.1 41.1 73.4 89 96 142.4 23.4 55.2 35.2 113.9 35.2 174.4s-11.8 119.1-35.2 174.4c-22.6 53.3-54.9 101.3-96 142.4s-89 73.4-142.4 96c-55.3 23.3-113.9 35.2-174.4 35.2z m0-865c-229.9 0-417 187.1-417 417s187.1 417 417 417 417-187.1 417-417-187.1-417-417-417z" fill="#32A3A1" p-id="6385"></path><path d="M515.8 340.6c-64.7 0-129.1-5.3-191.4-15.7-60.6-10.2-119.6-25.3-175.4-44.9l10.3-29.2c111.1 39 231.1 58.8 356.5 58.8 122.2 0 239.3-18.8 348.2-55.9l10 29.3c-112.1 38.2-232.6 57.6-358.2 57.6zM158.3 779.9L148 750.7c55.8-19.6 114.8-34.7 175.4-44.8 62.3-10.4 126.7-15.7 191.4-15.7 125.6 0 246.1 19.4 358.2 57.6L863 777c-108.8-37.1-226-55.9-348.2-55.9-125.4 0-245.4 19.8-356.5 58.8zM86.5 495h856.6v31H86.5z" fill="#32A3A1" p-id="6386"></path><path d="M441.9 947c-34.1-61.6-60.6-129.9-78.7-202.8-18.8-75.4-28.3-154.3-28.3-234.7 0-79.9 9.4-158.4 27.9-233.3 18-72.6 44.1-140.5 77.8-201.9l27.2 14.9c-66.7 121.6-101.9 267-101.9 420.3 0 154.4 35.7 300.5 103.2 422.6L441.9 947z m139 0l-27.1-15C621.3 810 657 663.8 657 509.4c0-153.4-35.2-298.7-101.9-420.3l27.2-14.9c33.7 61.4 59.9 129.4 77.8 201.9C678.6 351 688 429.5 688 509.4c0 80.4-9.5 159.4-28.3 234.7-18.2 73-44.7 141.3-78.8 202.9z" fill="#32A3A1" p-id="6387"></path></svg>