<?xml version="1.0" standalone="no"?><!DOCTYPE svg PUBLIC "-//W3C//DTD SVG 1.1//EN" "http://www.w3.org/Graphics/SVG/1.1/DTD/svg11.dtd"><svg t="1755764674401" class="icon" viewBox="0 0 1024 1024" version="1.1" xmlns="http://www.w3.org/2000/svg" p-id="12756" xmlns:xlink="http://www.w3.org/1999/xlink" width="200" height="200"><path d="M512 513.021956m-510.978044 0a510.978044 510.978044 0 1 0 1021.956088 0 510.978044 510.978044 0 1 0-1021.956088 0Z" fill="#E6F5FF" p-id="12757"></path><path d="M757.939864 656.136687c0 7.725988-6.458762 14.744782-15.06772 14.744782h-269.775968l-0.719457-0.701062c-1.434826-0.703106-2.869653-0.703106-4.304479-0.703106h-12.913438l-0.717413-0.701061c-4.306523-2.808335-7.174132-7.723944-7.174132-12.637509V317.72206c0-7.723944 6.454675-14.744782 15.063633-14.744783h280.541254c8.611002 0 15.067721 6.319776 15.06772 14.744783v338.416671z" fill="#C7E3FD" p-id="12758"></path><path d="M819.833613 668.837557h-50.586827l1.404168-4.917653c0.703106-2.810379 0.703106-5.620758 0.703106-7.728032V316.135984c0-18.268487-15.458108-33.724551-35.130763-33.724551H462.212343c-18.971593 0-35.130762 14.755002-35.130762 33.724551v18.266443h-17.565381c-18.967505 0-34.425613 15.458108-34.425613 33.724551v339.354826c0 2.810379 0.701062 4.917653 1.404167 8.431138l1.406212 4.917653h-68.152208c-4.917653 0-9.134244 4.917653-9.134243 10.538411 0 5.620758 4.216591 10.538411 9.134243 10.538411h375.184607c18.971593 0 34.427657-15.456064 34.427657-33.724551v-17.563337h99.769485c4.917653 0 9.835305-4.919697 9.835305-10.540455 0.703106-6.32182-3.513485-11.241517-9.134243-11.241517z m-67.449102-12.645685c0 4.917653-2.812423 9.835305-7.730076 11.944623l-0.703106 0.701062h-19.672654l-4.214547 0.703106V368.830084c0-18.969549-15.458108-33.724551-34.427657-33.724551H448.160447v-18.266443c0-7.730076 7.024926-14.051896 15.456064-14.051896h274.012998c8.431138 0 15.456064 6.32182 15.456064 14.051896v339.350738h-0.703106z m-491.115305 64.638723H195.226315c-4.919697 0-9.136287 4.917653-9.136287 10.538411 0 5.620758 4.216591 10.538411 9.136287 10.538411h66.042891c4.917653 0 9.134244-4.917653 9.134243-10.538411 0-5.620758-4.216591-10.538411-9.134243-10.538411z" fill="#2491F7" p-id="12759"></path><path d="M700.391473 707.47976c0 7.730076-6.323864 14.757046-14.755002 14.757046h-264.175649l-0.703105-0.703105c-1.404168-0.703106-2.810379-0.703106-4.214547-0.703106h-12.647729l-0.701062-0.703106c-4.216591-2.810379-7.02697-7.728032-7.02697-12.645685V368.830084c0-7.728032 6.323864-14.755002 14.755002-14.755002h274.71406c8.431138 0 14.755002 6.323864 14.755002 14.757046V707.47976z" fill="#FFFFFF" p-id="12760"></path><path d="M630.131992 415.200319h-186.891242c-4.917653 0-9.1322 4.919697-9.132199 10.540455s4.214547 10.538411 9.132199 10.538412h186.891242c4.917653 0 9.134244-4.917653 9.134244-10.538412 0-5.620758-4.216591-10.538411-9.136288-10.538411z m0 72.368799h-186.891242c-4.917653 0-9.1322 4.917653-9.132199 10.538411 0 5.620758 4.214547 10.538411 9.132199 10.538411h186.891242c4.917653 0 9.134244-4.917653 9.134244-10.538411 0-5.620758-4.216591-10.538411-9.136288-10.538411z m-80.797892 66.04289h-106.09335c-4.917653 0-9.1322 4.919697-9.132199 10.540455s4.214547 10.538411 9.132199 10.538411h106.09335c4.917653 0 9.1322-4.917653 9.132199-10.538411 0-5.620758-4.214547-10.540455-9.132199-10.540455z" fill="#2491F7" p-id="12761"></path><path d="M297.804136 590.850044v-53.397206c0-4.214547-3.513485-7.728032-8.431138-7.728032-4.917653 0-8.431138 3.513485-8.431138 7.728032v53.397206c0 4.216591 3.513485 7.728032 8.431138 7.728032 4.216591 0 8.431138-3.511441 8.431138-7.725988z m18.268487-35.128719c3.511441 0 7.024926 3.511441 7.725988 8.431138 0 4.917653-3.511441 8.431138-7.725988 8.431138h-53.397206c-4.216591 0-7.730076-3.515529-7.730076-8.431138 0-4.919697 3.515529-8.431138 7.730076-8.431138z m-103.984032-205.862834c16.15917 0 28.804854 12.647729 28.804854 28.808942-0.701062 16.15917-13.346747 28.804854-28.804854 28.804854s-28.806898-12.645685-28.806898-28.804854c0-15.458108 12.645685-28.806898 28.806898-28.806898z m0 12.647729c-9.136287 0-16.862275 7.730076-16.862276 16.862275 0 9.136287 7.725988 16.862275 16.862276 16.862275 9.1322 0 16.862275-7.725988 16.862275-16.862275-0.703106-9.1322-7.730076-16.862275-16.862275-16.862275z m602.825325-26.697581c13.34879 0 24.590307 11.241517 24.590308 24.590307 0 13.34879-11.241517 24.590307-24.588264 24.590307-13.350834 0-24.592351-11.241517-24.592351-24.588263 0-13.350834 11.241517-24.592351 24.590307-24.592351z m0 11.944622a12.594587 12.594587 0 0 0-12.645684 12.645685 12.594587 12.594587 0 0 0 12.645684 12.647729 12.594587 12.594587 0 0 0 12.647729-12.647729 12.594587 12.594587 0 0 0-12.647729-12.645685z m-498.841293-65.343872c3.511441 0 5.620758 2.109317 5.620758 4.919697l-0.002044 11.241517h11.241517c2.017341 0 4.032639 2.571242 4.819545 5.252854l0.100152 0.367904c0 3.513485-2.107273 5.620758-4.917653 5.620759h-11.243561v10.538411c0 2.702052-2.595768 4.756184-5.293732 4.909477l-0.327026 0.01022c-3.511441 0-5.620758-2.109317-5.620759-4.919697v-10.538411h-10.538411c-2.702052 0-4.75414-2.597812-4.907433-5.295777l-0.01022-0.324982c0-3.513485 2.107273-5.620758 4.917653-5.620758h10.538411v-11.241517c0-2.702052 2.599856-4.75414 5.297821-4.909477z" fill="#C7E3FD" p-id="12762"></path></svg>