<?xml version="1.0" standalone="no"?><!DOCTYPE svg PUBLIC "-//W3C//DTD SVG 1.1//EN" "http://www.w3.org/Graphics/SVG/1.1/DTD/svg11.dtd"><svg t="1755764598388" class="icon" viewBox="0 0 1024 1024" version="1.1" xmlns="http://www.w3.org/2000/svg" p-id="10172" xmlns:xlink="http://www.w3.org/1999/xlink" width="200" height="200"><path d="M910.208 64a49.792 49.792 0 0 1 49.152 41.92l0.64 7.872v796.416a49.792 49.792 0 0 1-41.92 49.152l-7.872 0.64H113.792a49.792 49.792 0 0 1-49.28-43.008L64 910.208V113.792c0-25.216 18.752-46.08 43.008-49.28l6.784-0.512h796.416zM896 405.312H128V896h768V405.312zM434.944 522.176a31.104 31.104 0 0 1 1.024 48.384l-80.64 69.696 80.64 69.632c16 13.632 16 35.648 0 49.28a45.248 45.248 0 0 1-29.12 8.768 43.904 43.904 0 0 1-29.056-11.584l-109.76-92.864a31.168 31.168 0 0 1 0-49.28l109.76-92.8a46.72 46.72 0 0 1 57.152 0.768z m211.264-4.48l109.76 95.36c16 13.952 16 36.608 0 50.56l-109.76 95.296a44.48 44.48 0 0 1-29.056 9.024 43.904 43.904 0 0 1-29.12-10.432 32.512 32.512 0 0 1 0-50.56l80.64-70.016-80.64-71.488a32.384 32.384 0 0 1 7.552-43.712 46.08 46.08 0 0 1 50.624-3.968zM896 128H128v213.312h768V128z" fill="#191919" p-id="10173"></path></svg>