<?xml version="1.0" standalone="no"?><!DOCTYPE svg PUBLIC "-//W3C//DTD SVG 1.1//EN" "http://www.w3.org/Graphics/SVG/1.1/DTD/svg11.dtd"><svg t="1755764570956" class="icon" viewBox="0 0 1024 1024" version="1.1" xmlns="http://www.w3.org/2000/svg" p-id="8430" xmlns:xlink="http://www.w3.org/1999/xlink" width="200" height="200"><path d="M668.444444 65.308444a133.973333 133.973333 0 0 1 91.022223-0.910222l9.671111 3.868445 198.030222 88.177777 5.176889 2.446223c28.842667 15.075556 48.184889 42.666667 51.313778 75.264l0.341333 7.224889V858.453333l-0.284444 4.437334c-3.185778 34.304-33.564444 59.847111-69.12 59.847111-7.68 0-15.36-1.251556-24.064-4.096l-5.859556-2.332445-123.335111-55.921777-5.916445-2.503112a155.648 155.648 0 0 0-106.211555-3.868444l-8.647111 3.128889-273.863111 107.406222-6.428445 2.275556a134.826667 134.826667 0 0 1-79.075555 1.251555l-8.419556-2.844444-249.514667-91.591111-5.063111-1.991111a95.288889 95.288889 0 0 1-57.856-78.392889L0 785.976889V200.988444l0.170667-4.835555c3.242667-50.346667 47.786667-88.746667 100.807111-88.746667 9.898667 0 19.740444 1.308444 30.72 4.437334l7.964444 2.730666 177.436445 68.664889a129.422222 129.422222 0 0 0 84.935111-0.796444l8.135111-3.242667 252.074667-111.388444z m63.601778 50.346667a76.231111 76.231111 0 0 0-43.008 2.673778l-4.551111 1.820444L432.355556 231.594667l-9.841778 3.982222a187.164444 187.164444 0 0 1-124.245334 1.365333L291.271111 234.382222 120.149333 168.049778 114.915556 166.115556a51.427556 51.427556 0 0 0-13.880889-1.934223c-23.950222 0-42.780444 16.270222-43.975111 34.645334L56.832 784.611556l0.227556 4.551111a37.774222 37.774222 0 0 0 23.153777 30.037333l3.413334 1.422222 247.751111 90.908445 6.371555 2.104889c14.734222 4.152889 30.378667 3.868444 44.032-0.568889l4.778667-1.706667 273.92-107.463111 10.24-3.640889a213.333333 213.333333 0 0 1 146.545778 5.12l6.940444 2.958222 122.424889 55.523556 2.958222 1.137778c1.706667 0.568889 3.413333 0.853333 5.006223 0.853333 7.111111 0 12.117333-4.209778 12.401777-7.054222l0.113778-1.763556V242.744889l-0.170667-4.494222a37.034667 37.034667 0 0 0-20.081777-28.501334l-3.584-1.706666-196.152889-87.324445-6.826667-2.730666zM404.48 397.937778v312.604444h-53.703111V397.937778h53.703111zM686.648889 319.715556v312.604444h-53.703111V319.772444h53.703111z" fill="#1296db" p-id="8431"></path></svg>