<?xml version="1.0" standalone="no"?><!DOCTYPE svg PUBLIC "-//W3C//DTD SVG 1.1//EN" "http://www.w3.org/Graphics/SVG/1.1/DTD/svg11.dtd"><svg t="1756282641967" class="icon" viewBox="0 0 1024 1024" version="1.1" xmlns="http://www.w3.org/2000/svg" p-id="4983" xmlns:xlink="http://www.w3.org/1999/xlink" width="200" height="200"><path d="M738.133333 131.072a224 224 0 0 0-142.016 51.2 31.68 31.68 0 0 0-5.568 4.586667L514.133333 263.317333l-55.381333-55.424-20.970667-20.970666a31.701333 31.701333 0 0 0-5.418666-4.458667 222.976 222.976 0 0 0-142.229334-51.413333c-123.52 0-224 100.48-224 224 0 64.725333 28.053333 126.208 77.034667 168.832l348.352 348.373333a32 32 0 0 0 45.269333 0L885.12 523.904a223.210667 223.210667 0 0 0 77.056-168.832c-0.042667-123.52-100.522667-224-224.042667-224z m104.341334 345.088a26.261333 26.261333 0 0 0-1.792 1.664L514.133333 804.394667 187.605333 477.824a31.466667 31.466667 0 0 0-1.749333-1.621333A159.829333 159.829333 0 0 1 130.133333 355.050667c0-88.234667 71.765333-160 159.978667-160a159.018667 159.018667 0 0 1 103.616 38.528l0.938667 0.768 96.853333 96.853333c11.989333 11.989333 33.28 11.989333 45.269333 0l96.832-96.810667 0.853334-0.725333a159.936 159.936 0 0 1 103.68-38.592c88.234667 0 160 71.765333 160 160a159.402667 159.402667 0 0 1-55.68 121.088z" fill="#333333" p-id="4984"></path></svg>