<?xml version="1.0" standalone="no"?><!DOCTYPE svg PUBLIC "-//W3C//DTD SVG 1.1//EN" "http://www.w3.org/Graphics/SVG/1.1/DTD/svg11.dtd"><svg t="1755003281558" class="icon" viewBox="0 0 1024 1024" version="1.1" xmlns="http://www.w3.org/2000/svg" p-id="20447" xmlns:xlink="http://www.w3.org/1999/xlink" width="200" height="200"><path d="M862.5 477.7L719 822.1H306.3L162.8 477.7c-35.1-3.1-62.8-32.2-62.8-68.2 0-38 30.8-68.8 68.8-68.8s68.8 30.8 68.8 68.8c0 14.6-4.6 28.1-12.4 39.2 24.3 38.4 66.7 64 115.5 64 64 0 117.3-43.9 132.7-103.1l1-5.8 3.8-72.5c-20.5-11.9-34.4-33.8-34.4-59.2 0-38 30.8-68.8 68.8-68.8s68.8 30.8 68.8 68.8c0 25.4-13.9 47.3-34.4 59.2l2.4 71.4 2.5 6.9c15.3 59.2 68.7 103.1 132.7 103.1 48.8 0 91.2-25.6 115.5-64-7.8-11.1-12.4-24.6-12.4-39.2 0-38 30.8-68.8 68.8-68.8s68.8 30.8 68.8 68.8c0 35.9-27.7 65.1-62.8 68.2z" fill="#FCD012" p-id="20448"></path><path d="M468.2 728.7h39.3V594.3h-30.9v-12.7c15.1-2.6 26.3-6.5 35.4-12h14.9v159h35.7V745h-94.4v-16.3z" fill="#FFFFFF" p-id="20449"></path></svg>