<?xml version="1.0" standalone="no"?><!DOCTYPE svg PUBLIC "-//W3C//DTD SVG 1.1//EN" "http://www.w3.org/Graphics/SVG/1.1/DTD/svg11.dtd"><svg t="1755063756566" class="icon" viewBox="0 0 1024 1024" version="1.1" xmlns="http://www.w3.org/2000/svg" p-id="11363" width="200" height="200" xmlns:xlink="http://www.w3.org/1999/xlink"><path d="M912 137H112c-55.23 0-100 44.77-100 100v550c0 55.23 44.77 100 100 100h800c55.23 0 100-44.77 100-100V237c0-55.23-44.77-100-100-100z m50 650c0 27.57-22.43 50-50 50H112c-27.57 0-50-22.43-50-50V237c0-27.57 22.43-50 50-50h800c27.57 0 50 22.43 50 50v550z" fill="#8999fa" p-id="11364"></path><path d="M421.27 366.25c-5.51-10-14.43-18.66-26.76-26l-60.5 24.01c10.67 11.67 18.51 23.41 23.5 35.24 5 11.84 7.51 25.26 7.51 40.26 0 20.67-6.18 44.92-18.51 72.74-12.34 27.84-32.17 61.76-59.5 101.76h-5c-1.67-8.01-3.59-17.42-5.75-28.26-2.17-10.83-5.18-25.24-9-43.25-3.83-17.99-8.68-40.41-14.5-67.25-5.83-26.83-13.09-60.25-21.75-100.24h3c2.66-0.67 5.42-1.33 8.25-2s6.25-1.66 10.25-3L268 352.27H124.01l-20.51 17.49 50.5 5.51h4c3.33 11.67 7.01 25.24 11 40.75 4 15.5 8.67 35 14 58.5s11.58 52.17 18.75 86c7.17 33.84 15.75 74.93 25.76 123.25H270c2.33-5 5.42-10.91 9.25-17.75 3.83-6.82 9.58-16.5 17.25-29s17.83-28.75 30.51-48.74c12.66-20.01 29.16-45.34 49.5-76 17.99-23.67 31.32-45.01 39.99-64 8.67-19.01 13-34.67 13-47 0-13.35-2.74-25.02-8.23-35.03zM557.25 519.01c1.83-45.51 3.92-92.92 6.25-142.25l39-6.01 17.49-20.5H461l-16.5 20.5 51 7.5h1l-12 278-42.99 7.01-23 20.5h173l16.49-20.5-57-6.01c2.33-46.67 4.42-92.75 6.25-138.24zM894.5 369.75c-2.33-2-5.83-4.25-10.5-6.75-4.68-2.5-10.34-4.91-16.99-7.25-6.68-2.32-14.26-4.25-22.75-5.75s-17.75-2.08-27.75-1.75l-170.51 4-16 18.49 47.01 5.51-11.5 281.99h-1l-39.5 7.5-16 18.01h175.5l26-18.01c-13-1.66-25.17-3.16-36.5-4.49-11.34-1.33-23-2.33-35-3h-6.51l5.51-122c4.66 0.67 9.83 1.33 15.5 2 5.66 0.67 11.16 1.25 16.49 1.75s10.25 0.93 14.76 1.25c4.49 0.34 8.24 0.5 11.24 0.5 20.01 0 37.76-2.75 53.25-8.24 15.5-5.51 28.5-13.42 39-23.75s18.51-22.58 24-36.76c5.51-14.16 8.25-30.08 8.25-47.74 0-11-2.42-21.42-7.25-31.25s-11.09-17.92-18.75-24.26z m-50.75 92.01c-2.83 9.34-8.18 17.92-16 25.74-7.84 7.84-18.92 14.59-33.25 20.25-14.33 5.68-33 10-55.99 13 1-25 1.92-49.91 2.75-74.74s1.92-49.91 3.25-75.26l27.5-0.5c12 0 22.67 1.75 32.01 5.25 9.33 3.5 17.25 8.09 23.74 13.76 6.51 5.66 11.5 12.17 15 19.49 3.5 7.34 5.25 15 5.25 23-0.01 10.67-1.43 20.68-4.26 30.01z" fill="#8999fa" p-id="11365"></path></svg>