<?xml version="1.0" standalone="no"?><!DOCTYPE svg PUBLIC "-//W3C//DTD SVG 1.1//EN" "http://www.w3.org/Graphics/SVG/1.1/DTD/svg11.dtd"><svg t="1755489261496" class="icon" viewBox="0 0 1024 1024" version="1.1" xmlns="http://www.w3.org/2000/svg" p-id="10781" xmlns:xlink="http://www.w3.org/1999/xlink" width="200" height="200"><path d="M0 0m512 0l0 0q512 0 512 512l0 0q0 512-512 512l0 0q-512 0-512-512l0 0q0-512 512-512Z" fill="#EBF0F5" p-id="10782"></path><path d="M518.592 208c-206.4 0-243.744 218.432-249.664 270.272-13.44 12.352-40.544 40.704-56.608 80.128-6.336 15.552-5.696 31.424 1.888 44.8 14.624 25.856 52.768 35.584 78.72 39.296l-0.992 117.824c0 13.088 9.728 23.68 21.76 23.68H444.8c12.032 0 20.928-12.48 20.928-23.68 0-11.264-8.896-22.144-20.928-22.144h-110.528v-115.168a21.92 21.92 0 0 0-21.12-22.272c-28.32-1.536-57.6-14.208-60.992-22.944 16.672-40.8 48.48-68.48 48.8-68.768 3.52-2.784 6.496-8.704 8.96-17.76 24.448-161.504 93.6-242.24 207.36-242.24 95.904 0 177.664 49.472 210.144 128.48 33.664 81.824 16.928 190.88-72.064 299.36-3.392 4.16-4.64 11.072-4.64 16.64v64.768c1.024 10.784 3.968 17.888 8.864 21.344 7.296 5.152 18.944 5.088 26.848-0.192 5.248-3.52 8.096-10.656 8.512-21.344v-61.824c86.4-115.808 111.456-238.944 68.576-338.944C723.392 263.84 631.808 208 518.592 208z" fill="#3D6D99" p-id="10783"></path><path d="M558.4 322.144c23.52 0 42.56 18.88 42.56 42.176 0 13.216-6.144 25.024-15.776 32.768l29.984 128.192a42.24 42.24 0 0 1 33.024 41.088c0 23.296-19.072 42.176-42.56 42.176-20.608 0-37.76-14.528-41.696-33.792l-125.664-32.64a42.624 42.624 0 0 1-32.128 14.528c-23.52 0-42.56-18.88-42.56-42.144 0-23.296 19.04-42.176 42.56-42.176 4.864 0 9.536 0.8 13.888 2.304l98.08-96.736a42.368 42.368 0 0 1 40.32-55.744z m-13.888 82.048l-98.112 96.672c0.608 1.696 1.056 3.424 1.44 5.216l125.632 32.672c1.632-1.856 3.424-3.552 5.344-5.12l-29.952-128.224a42.528 42.528 0 0 1-4.352-1.216z" fill="#3D6D99" p-id="10784"></path></svg>