<?xml version="1.0" standalone="no"?><!DOCTYPE svg PUBLIC "-//W3C//DTD SVG 1.1//EN" "http://www.w3.org/Graphics/SVG/1.1/DTD/svg11.dtd"><svg t="1756282703043" class="icon" viewBox="0 0 1024 1024" version="1.1" xmlns="http://www.w3.org/2000/svg" p-id="5151" xmlns:xlink="http://www.w3.org/1999/xlink" width="200" height="200"><path d="M514.133333 881.642667c-8.490667 0-16.618667-3.370667-22.634666-9.365334L143.168 523.904A223.786667 223.786667 0 0 1 66.133333 355.050667c0-123.52 100.48-224 224-224 52.010667 0.042667 102.336 18.282667 142.229334 51.413333 1.962667 1.28 3.776 2.752 5.418666 4.458667l20.970667 20.970666 55.381333 55.424 76.416-76.437333c1.706667-1.749333 3.562667-3.285333 5.568-4.586667a223.872 223.872 0 0 1 142.016-51.2c123.52 0 224 100.48 224 224a223.146667 223.146667 0 0 1-77.056 168.832L536.768 872.277333a32 32 0 0 1-22.634667 9.365334z" fill="#d81e06" p-id="5152"></path></svg>