<?xml version="1.0" standalone="no"?><!DOCTYPE svg PUBLIC "-//W3C//DTD SVG 1.1//EN" "http://www.w3.org/Graphics/SVG/1.1/DTD/svg11.dtd"><svg t="1755077266320" class="icon" viewBox="0 0 1024 1024" version="1.1" xmlns="http://www.w3.org/2000/svg" p-id="26885" xmlns:xlink="http://www.w3.org/1999/xlink" width="200" height="200"><path d="M307.2 119.0912a185.1392 185.1392 0 0 0 0 370.2784h131.4816A53.7088 53.7088 0 0 0 492.288 435.712V304.2304A185.344 185.344 0 0 0 307.2 119.0912zM438.6816 536.2688H307.2a185.1392 185.1392 0 1 0 185.088 185.1392v-131.4816a53.7088 53.7088 0 0 0-53.6064-53.6576zM725.0432 536.2688h-131.4816a53.7088 53.7088 0 0 0-53.6576 53.6576v131.4816a185.1392 185.1392 0 1 0 185.1392-185.1392zM593.5616 489.3696h131.4816a185.1392 185.1392 0 1 0-185.1392-185.1392V435.712a53.7088 53.7088 0 0 0 53.6576 53.6576z" fill="#89c6fe" p-id="26886"></path></svg>