<?xml version="1.0" standalone="no"?><!DOCTYPE svg PUBLIC "-//W3C//DTD SVG 1.1//EN" "http://www.w3.org/Graphics/SVG/1.1/DTD/svg11.dtd"><svg t="1755110267509" class="icon" viewBox="0 0 1024 1024" version="1.1" xmlns="http://www.w3.org/2000/svg" p-id="9436" xmlns:xlink="http://www.w3.org/1999/xlink" width="200" height="200"><path d="M860.16 583.68c-25.6 0-46.08 20.48-46.08 46.08v92.16c0 51.2-40.96 92.16-92.16 92.16H302.08c-51.2 0-92.16-40.96-92.16-92.16v-92.16c0-25.6-20.48-46.08-46.08-46.08s-46.08 20.48-46.08 46.08v92.16c0 102.4 81.92 184.32 184.32 184.32h419.84c102.4 0 184.32-81.92 184.32-184.32v-92.16c0-25.6-20.48-46.08-46.08-46.08z" fill="#4D4D4D" p-id="9437"></path><path d="M481.28 660.48c20.48 20.48 46.08 20.48 66.56 0l184.32-184.32c20.48-20.48 20.48-46.08 0-66.56s-46.08-20.48-66.56 0l-107.52 107.52V163.84c0-25.6-20.48-46.08-46.08-46.08s-46.08 20.48-46.08 46.08v353.28L358.4 409.6c-15.36-20.48-46.08-20.48-66.56 0s-20.48 46.08 0 66.56l189.44 184.32z" fill="#4D4D4D" p-id="9438"></path></svg>