<?xml version="1.0" standalone="no"?><!DOCTYPE svg PUBLIC "-//W3C//DTD SVG 1.1//EN" "http://www.w3.org/Graphics/SVG/1.1/DTD/svg11.dtd"><svg t="1755109075468" class="icon" viewBox="0 0 1024 1024" version="1.1" xmlns="http://www.w3.org/2000/svg" p-id="15875" xmlns:xlink="http://www.w3.org/1999/xlink" width="200" height="200"><path d="M342.078694 931.610122a460.089469 460.089469 0 0 1-155.167347-103.235918A465.10498 465.10498 0 0 1 52.244898 500.171755 465.042286 465.042286 0 0 1 186.953143 171.82302c83.779918-84.636735 204.382041-126.955102 325.046857-126.955102 120.602122 0 241.225143 42.339265 325.046857 126.996898A465.10498 465.10498 0 0 1 971.755102 500.109061a465.10498 465.10498 0 0 1-134.666449 328.286041A456.244245 456.244245 0 0 1 512 964.378122a456.223347 456.223347 0 0 1-169.984-32.726204l0.062694-0.041796zM512 137.404082c-96.339592 0-192.679184 33.854694-259.615347 101.501387a371.252245 371.252245 0 0 0-88.816326 144.990041c-5.078204 18.557388 1.671837 27.292735 20.06204 26.331429 60.478694-2.361469 190.631184-4.242286 217.422368-5.642449a149.524898 149.524898 0 0 0-36.905796 98.680163 149.545796 149.545796 0 0 0 75.587918 130.319674 146.578286 146.578286 0 0 0 176.838531-24.68049 149.566694 149.566694 0 0 0 43.258775-105.57649c0-37.825306-13.876245-72.390531-36.884898-98.680163 26.791184 1.337469 156.943673 3.218286 217.40147 5.579755 18.390204 1.024 25.161143-7.774041 20.103836-26.331429a371.043265 371.043265 0 0 0-88.816326-144.990041C704.679184 171.258776 608.339592 137.404082 512 137.404082z m82.964898 282.268734c-42.79902-43.196082-123.130776-43.196082-165.971592 0a118.846694 118.846694 0 0 0-34.335347 83.759021 118.721306 118.721306 0 0 0 62.192327 104.656979 117.007673 117.007673 0 0 0 138.093714-20.877061 118.595918 118.595918 0 0 0 34.398041-83.800816 118.491429 118.491429 0 0 0-34.398041-83.738123z m-61.64898 127.519347a48.922122 48.922122 0 0 0 27.083755-43.885714 48.399673 48.399673 0 1 0-96.799346 0c0 19.226122 11.034122 35.94449 27.083755 43.885714a48.525061 48.525061 0 0 0 42.631836 0z m54.878041 316.583184a365.379918 365.379918 0 0 0 183.421388-100.581878 371.126857 371.126857 0 0 0 101.501388-194.768979c4.91102-20.48-3.761633-26.707592-19.058939-26.247837-30.761796-0.626939-61.54449-0.501551-90.864327 5.12-104.573388 19.832163-141.918041 70.802286-160.496326 188.039837-6.624653 42.590041-10.929633 92.431673-14.503184 128.438857z m-152.387918 0c-3.573551-36.007184-7.878531-85.848816-14.565878-128.438857-18.515592-117.237551-55.860245-168.207673-160.433632-188.081633-29.319837-5.579755-60.102531-5.684245-90.906123-5.078204-15.25551-0.501551-23.928163 5.788735-19.017143 26.226939a371.064163 371.064163 0 0 0 101.501388 194.789877 365.379918 365.379918 0 0 0 183.421388 100.581878z" fill="#9FA2A6" p-id="15876"></path></svg>