<?xml version="1.0" standalone="no"?><!DOCTYPE svg PUBLIC "-//W3C//DTD SVG 1.1//EN" "http://www.w3.org/Graphics/SVG/1.1/DTD/svg11.dtd"><svg t="1755001332744" class="icon" viewBox="0 0 1102 1024" version="1.1" xmlns="http://www.w3.org/2000/svg" p-id="3603" xmlns:xlink="http://www.w3.org/1999/xlink" width="215.234375" height="200"><path d="M355.643077 269.863385L63.172923 464.659692A40.644923 40.644923 0 0 1 0 430.867692V41.038769a40.644923 40.644923 0 0 1 63.172923-33.870769l292.470154 195.111385a40.644923 40.644923 0 0 1 0 67.584z" fill="#212121" p-id="3604"></path><path d="M528.226462 168.251077h501.208615c36.076308 0 54.193231 18.116923 54.193231 54.193231 0 36.076308-18.116923 54.193231-54.193231 54.19323H528.226462c-36.076308 0-54.114462-18.116923-54.114462-54.19323 0-36.155077 18.038154-54.193231 54.114462-54.193231zM54.193231 540.750769h975.163077c36.233846 0 54.272 18.116923 54.272 54.193231 0 36.076308-18.116923 54.193231-54.193231 54.193231H54.193231C18.038154 649.058462 0 630.941538 0 594.944c0-36.155077 18.116923-54.193231 54.193231-54.193231zM54.193231 913.250462h975.163077c36.233846 0 54.272 18.038154 54.272 54.19323 0 36.076308-18.116923 54.114462-54.193231 54.114462H54.193231c-36.155077 0-54.193231-18.038154-54.193231-54.114462 0-36.155077 18.116923-54.193231 54.193231-54.19323z" fill="#252525" p-id="3605"></path></svg>