<?xml version="1.0" standalone="no"?><!DOCTYPE svg PUBLIC "-//W3C//DTD SVG 1.1//EN" "http://www.w3.org/Graphics/SVG/1.1/DTD/svg11.dtd"><svg t="1754903719699" class="icon" viewBox="0 0 1024 1024" version="1.1" xmlns="http://www.w3.org/2000/svg" p-id="18572" width="200" height="200" xmlns:xlink="http://www.w3.org/1999/xlink"><path d="M40.256 531.84C40.192 532.416 40.32 536.384 40.384 536.768c0.064 0.384 0.32 1.92 0.448 2.368 0.064 0.32 0.512 1.856 0.64 2.24 0.128 0.32 0.704 1.792 0.832 2.176 0.128 0.32 0.832 1.664 1.088 2.048C43.52 545.856 44.352 547.2 44.672 547.584 44.8 547.776 45.824 549.12 46.208 549.504c0.128 0.128 1.28 1.344 1.792 1.792 0 0 3.264 2.496 3.84 2.816 0 0 1.408 0.768 1.984 1.024 3.328 1.536 6.656 2.304 10.112 2.304l81.472 0 0 327.296c0 46.016 30.912 86.72 75.264 99.008l182.976 0L403.648 615.104c0-30.4 24.768-55.168 55.168-55.168l105.28 0c30.4 0 55.168 24.768 55.168 55.168l0 368.768 182.976 0c44.352-12.352 75.264-52.992 75.264-99.008L877.504 562.56l-47.616 0 0 322.304c0 30.4-24.768 55.168-55.168 55.168l-107.84 0L666.88 615.104c0-56.704-46.144-102.848-102.784-102.848L458.88 512.256c-56.704 0-102.784 46.144-102.784 102.848l0 324.864L248.192 939.968c-30.4 0-55.168-24.768-55.168-55.168L193.024 537.28l0 0 0-3.712c0-12.992-10.688-23.68-23.808-23.68L116.928 509.888l360-405.76C486.272 93.568 498.56 87.744 511.552 87.744c12.992 0 25.28 5.824 34.624 16.32l395.904 445.312c4.672 5.184 11.008 8.064 17.792 8.064 5.824 0 11.392-2.112 15.808-6.016 4.8-4.224 7.616-10.112 8-16.512 0.384-6.336-1.792-12.416-5.952-17.152L581.76 72.512C563.264 51.648 538.304 40.128 511.552 40.128c-26.816 0-51.776 11.52-70.272 32.384L46.144 517.888c-0.128 0.192-1.472 1.92-1.728 2.24C44.16 520.448 43.648 521.28 43.648 521.28 43.52 521.536 43.328 521.792 43.2 522.048 43.008 522.432 42.816 522.752 42.688 523.072c0 0-0.384 0.832-0.512 1.024C41.984 524.544 41.536 525.632 41.536 525.632 41.472 525.888 41.088 527.104 40.96 527.488L40.896 527.808C40.832 528.064 40.768 528.32 40.704 528.576c-0.064 0.32-0.256 1.28-0.256 1.28C40.448 530.176 40.256 531.52 40.256 531.84z" fill="#8999fa" p-id="18573"></path></svg>