<?xml version="1.0" standalone="no"?><!DOCTYPE svg PUBLIC "-//W3C//DTD SVG 1.1//EN" "http://www.w3.org/Graphics/SVG/1.1/DTD/svg11.dtd"><svg t="1754904544491" class="icon" viewBox="0 0 1024 1024" version="1.1" xmlns="http://www.w3.org/2000/svg" p-id="33630" xmlns:xlink="http://www.w3.org/1999/xlink" width="200" height="200"><path d="M298.1 319.5c11.8 0 21.4 9.6 21.4 21.4 0 10.8-8.1 19.9-18.9 21.2l-2.5 0.1h-42.8c-57.2 0-104.3 45.1-106.8 102.3l-0.1 4.6V683c0 57.2 45.1 104.3 102.3 106.8l4.6 0.1h513.2c57.2 0 104.3-45.1 106.8-102.3l0.1-4.6V469.2c0-57.2-45.1-104.3-102.3-106.8l-4.6-0.1h-42.8c-11.8 0-21.4-9.6-21.4-21.4 0-10.8 8.1-19.9 18.9-21.2l2.5-0.1h42.8c80.7 0 146.8 63.9 149.6 144.6l0.1 5.1v213.9c0 80.7-63.9 146.8-144.6 149.6l-5.1 0.1H255.4c-80.7 0-146.8-63.9-149.6-144.6l-0.1-5.1v-214c0-80.7 63.9-146.8 144.6-149.6l5.1-0.1h42.7z m64.2 171.1c23.6 0 42.8 19.1 42.8 42.8 0 23.6-19.1 42.8-42.8 42.8-23.6 0-42.8-19.2-42.8-42.8 0.1-23.7 19.2-42.8 42.8-42.8z m299.4 0c23.6 0 42.8 19.1 42.8 42.8 0 23.6-19.1 42.8-42.8 42.8-23.6 0-42.8-19.2-42.8-42.8 0.1-23.7 19.2-42.8 42.8-42.8zM714 193.5c10.6 5.3 14.8 18.1 9.6 28.7-32.7 65.4-129.8 140.1-211.6 140.1s-178.9-74.7-211.6-140.1c-5-10.7-0.3-23.4 10.4-28.4 10.3-4.7 22.4-0.7 27.8 9.3 26.1 52.2 109.7 116.5 173.4 116.5S659.3 255.2 685.4 203c5.2-10.5 18.1-14.8 28.6-9.5z" p-id="33631" fill="#8999fa"></path><path d="M768.7 841.8H255.4c-41.4 0-80.5-15.8-110.3-44.6-29.7-28.7-46.9-67.3-48.3-108.7v-0.2l-0.1-5.3V469.2c0-41.4 15.8-80.5 44.6-110.3S208.6 312 250 310.6h0.2l5.3-0.1h42.8c8.1 0 15.7 3.2 21.5 8.9 5.7 5.7 8.9 13.4 8.9 21.5 0 15.4-11.5 28.3-26.8 30.1h-0.5l-3 0.2h-42.8c-52.5 0-95.5 41.1-97.8 93.6l-0.1 4.4V683c0 52.5 41.1 95.5 93.6 97.8l4.4 0.1h513.1c52.5 0 95.5-41.1 97.8-93.6l0.1-4.4V469.2c0-52.5-41.1-95.5-93.6-97.8l-4.4-0.1H726c-8.1 0-15.8-3.2-21.5-8.9-5.7-5.7-8.9-13.4-8.9-21.5 0-15.4 11.5-28.3 26.8-30.1h0.5l3-0.2h42.8c41.4 0 80.5 15.8 110.3 44.6s46.9 67.3 48.3 108.7l0.1 5.4v213.9c0 41.4-15.8 80.5-44.6 110.3-28.7 29.7-67.3 46.9-108.7 48.3h-5.4zM114.8 688c2.7 76.2 64.4 135.8 140.6 135.8h513.2l5-0.1c76.2-2.6 135.8-64.4 135.8-140.6V469.3l-0.1-5c-2.6-76.2-64.4-135.8-140.6-135.8h-42.5l-1.9 0.1c-6.1 0.8-10.7 6.1-10.7 12.3 0 3.3 1.3 6.4 3.6 8.8 2.3 2.3 5.4 3.6 8.8 3.6h43l4.8 0.1c62.2 2.7 110.9 53.6 110.9 115.8v214.1l-0.1 4.8c-2.9 62.2-53.7 110.9-116 110.9H255.3l-4.9-0.1c-62.2-2.7-110.9-53.6-110.9-115.8V469l0.1-4.8c2.7-62.2 53.6-110.9 115.8-110.9h42.5l1.9-0.1c6.1-0.8 10.7-6.1 10.7-12.3 0-3.3-1.3-6.4-3.6-8.8-2.3-2.3-5.4-3.6-8.7-3.6h-42.7l-5 0.1c-76.2 2.6-135.8 64.4-135.8 140.6V683l0.1 5z m546.9-102.9c-28.6 0-51.8-23.2-51.8-51.8 0-28.5 23.2-51.7 51.7-51.7 28.5 0 51.8 23.2 51.8 51.8 0.1 28.5-23.2 51.7-51.7 51.7z m0-85.5c-18.6 0-33.7 15.2-33.8 33.8 0 9 3.5 17.5 9.9 23.9 6.4 6.4 14.9 9.9 23.9 9.9 18.6 0 33.8-15.1 33.8-33.8 0-18.6-15.2-33.8-33.8-33.8z m-299.4 85.5c-28.6 0-51.8-23.2-51.8-51.8 0-28.5 23.2-51.7 51.7-51.7 28.5 0 51.8 23.2 51.8 51.8 0.1 28.5-23.2 51.7-51.7 51.7z m0-85.5c-18.6 0-33.7 15.2-33.8 33.8 0 18.6 15.1 33.8 33.8 33.8 18.6 0 33.8-15.1 33.8-33.8 0-18.6-15.2-33.8-33.8-33.8zM512 371.3c-39.7 0-85.7-16.7-129.3-47.1-39.7-27.6-73.4-64.2-90.3-98l-0.1-0.2c-3.4-7.4-3.7-15.6-0.9-23.2s8.4-13.7 15.8-17.1c14.5-6.7 31.9-0.9 39.5 13.2l0.1 0.2c25 50.1 106.2 111.4 165.2 111.4 59 0 140.2-61.3 165.3-111.5 7.5-15 25.8-21.1 40.7-13.6 15 7.5 21.1 25.8 13.6 40.7-16.9 33.7-50.6 70.4-90.3 98-43.6 30.5-89.6 47.2-129.3 47.2z m-203.5-153c32 63.8 125.7 135 203.5 135s171.6-71.4 203.5-135.2c3-6.1 0.6-13.5-5.5-16.6-6.1-3-13.6-0.6-16.6 5.5-13.6 27.1-41.8 57.4-75.5 81.1-37 26-74.6 40.3-105.9 40.3-31.4 0-69-14.3-105.9-40.3-33.6-23.7-61.8-53.9-75.4-81-3.1-5.7-10.1-8-16-5.3-3 1.4-5.3 3.9-6.4 7-1.2 3.2-1.1 6.5 0.2 9.5z" p-id="33632" fill="#8999fa"></path></svg>