<?xml version="1.0" standalone="no"?><!DOCTYPE svg PUBLIC "-//W3C//DTD SVG 1.1//EN" "http://www.w3.org/Graphics/SVG/1.1/DTD/svg11.dtd"><svg t="1754904175919" class="icon" viewBox="0 0 1024 1024" version="1.1" xmlns="http://www.w3.org/2000/svg" p-id="28796" xmlns:xlink="http://www.w3.org/1999/xlink" width="200" height="200"><path d="M812.742 828.146c83.611-79.455 135.623-191.48 135.623-315.653 0-0.173 0-0.347 0-0.52 0-241.020-195.36-436.337-436.364-436.337s-436.364 195.316-436.364 436.364c0 0.162 0 0.353 0 0.546 0 124.257 52.082 236.349 135.607 315.638 21.877-107.515 114.953-188.461 226.358-188.461h149.018c111.36 0 204.393 80.858 226.124 188.422zM512 32c265.091 0 480 214.866 480 480 0 265.091-214.909 480-480 480s-480-214.909-480-480c0-265.134 214.909-480 480-480zM331.651 431.447c0-0.004 0-0.008 0-0.013 0-99.652 80.784-180.436 180.436-180.436 99.653 0 180.436 80.784 180.436 180.436 0 0.005 0 0.009 0 0.014-0.008 99.646-80.789 180.423-180.436 180.423-99.648 0-180.429-80.777-180.436-180.423z" p-id="28797" fill="#8999fa"></path></svg>